<svg width="151" height="28" viewBox="0 0 151 28" fill="none" xmlns="http://www.w3.org/2000/svg">
<path d="M20.4647 10.2073C20.4647 16.1745 16.0981 19.8145 10.7113 19.8145H7.65095V27.3831H0V0.609375H10.7104C16.1045 0.609375 20.4647 4.24472 20.4647 10.2073ZM12.8137 10.2073C12.8324 9.92335 12.7916 9.6386 12.694 9.37126C12.5964 9.10392 12.4441 8.85987 12.2469 8.65471C12.0496 8.44955 11.8118 8.28778 11.5485 8.17974C11.2852 8.0717 11.0022 8.01976 10.7177 8.02723H7.65095V12.4012H10.7113C10.9973 12.4086 11.2817 12.3562 11.5462 12.2473C11.8107 12.1385 12.0496 11.9756 12.2475 11.769C12.4455 11.5625 12.5981 11.3169 12.6956 11.048C12.7931 10.7791 12.8333 10.4927 12.8137 10.2073Z" fill="white"/>
<path d="M30.4107 0.609375V27.3868H22.7598V0.609375H30.4107Z" fill="white"/>
<path d="M33.2779 13.9981C33.267 10.9705 34.2416 8.0216 36.0544 5.5967C37.8671 3.17179 40.4197 1.40255 43.3265 0.55615C46.2334 -0.290251 49.3368 -0.167852 52.1679 0.904865C54.9991 1.97758 57.4044 3.94236 59.0205 6.50251L52.3641 10.3271C51.8585 9.43265 51.1161 8.69493 50.2185 8.19501C49.3209 7.69509 48.3029 7.45232 47.2763 7.49339C46.423 7.47008 45.5742 7.62354 44.7831 7.94412C43.992 8.2647 43.2758 8.74547 42.6795 9.35621C42.0831 9.96695 41.6196 10.6945 41.318 11.493C41.0164 12.2915 40.8833 13.1438 40.927 13.9962C40.8833 14.8487 41.0164 15.701 41.318 16.4995C41.6196 17.298 42.0831 18.0255 42.6795 18.6363C43.2758 19.247 43.992 19.7278 44.7831 20.0484C45.5742 20.3689 46.423 20.5224 47.2763 20.4991C48.3079 20.5454 49.3317 20.301 50.2312 19.7939C51.1307 19.2868 51.8697 18.5372 52.3641 17.6307L59.0187 21.4561C57.8033 23.4772 56.0795 25.1445 54.0191 26.2919C51.9587 27.4392 49.6335 28.0266 47.2754 27.9956C45.4243 28.0428 43.583 27.713 41.8634 27.0263C40.1438 26.3395 38.5819 25.3102 37.2725 24.0009C35.9632 22.6916 34.9339 21.1296 34.2472 19.41C33.5604 17.6904 33.2307 15.8491 33.2779 13.9981Z" fill="white"/>
<path d="M75.8687 24.334H68.1409L67.2268 27.7765H59L67.5303 1H76.4802L85.0114 27.7774H76.7846L75.8687 24.334ZM74.2233 18.2206L72.0048 9.99375L69.7863 18.2206H74.2233Z" fill="white"/>
<path d="M108.367 0.609375V27.3868H102.253L93.8307 15.1434V27.3868H86.1816V0.609375H92.2951L100.716 12.85V0.609375H108.367Z" fill="white"/>
<path d="M130.935 8.03272H124.622V27.3868H116.971V8.03272H110.664V0.609375H130.939L130.935 8.03272Z" fill="white"/>
<path d="M150.827 20.3474V27.3859H133.23V0.609375H150.635V7.57201H140.88V10.4816H149.678V17.3674H140.88V20.351L150.827 20.3474Z" fill="white"/>
</svg>
