<svg width="140" height="27" viewBox="0 0 140 27" fill="none" xmlns="http://www.w3.org/2000/svg">
<path fill-rule="evenodd" clip-rule="evenodd" d="M33.4661 5.70081C31.7834 7.95165 30.8788 10.6889 30.8889 13.4991C30.8451 15.2173 31.1512 16.9264 31.7886 18.5226C32.426 20.1187 33.3815 21.5686 34.5968 22.7839C35.8121 23.9992 37.262 24.9547 38.8581 25.5921C40.4543 26.2295 42.1634 26.5356 43.8816 26.4918C46.0705 26.5207 48.2287 25.9754 50.1412 24.9104C52.0538 23.8454 53.6538 22.2978 54.782 20.4218L48.605 16.8709C48.1462 17.7124 47.4602 18.4082 46.6253 18.8789C45.7903 19.3496 44.84 19.5764 43.8824 19.5335C43.0904 19.5551 42.3025 19.4127 41.5682 19.1151C40.8339 18.8175 40.1691 18.3713 39.6156 17.8044C39.0621 17.2375 38.6318 16.5622 38.3519 15.821C38.0719 15.0798 37.9484 14.2887 37.9889 13.4974C37.9484 12.7061 38.0719 11.915 38.3519 11.1738C38.6318 10.4326 39.0621 9.75736 39.6156 9.19046C40.1691 8.62356 40.8339 8.1773 41.5682 7.87973C42.3025 7.58216 43.0904 7.43971 43.8824 7.46135C44.8354 7.42323 45.7803 7.64857 46.6135 8.11261C47.4467 8.57664 48.1358 9.26141 48.605 10.0916L54.7837 6.5416C53.2835 4.16523 51.0509 2.34148 48.423 1.34577C45.795 0.350056 42.9144 0.236443 40.2162 1.02209C37.518 1.80773 35.1487 3.44997 33.4661 5.70081ZM18.9957 9.98004C18.9957 15.5189 14.9425 18.8975 9.94244 18.8975H7.10174V25.9229H0V1.07104H9.94159C14.9484 1.07104 18.9957 4.44543 18.9957 9.98004ZM11.8939 9.98004C11.9113 9.71644 11.8734 9.45212 11.7828 9.20397C11.6922 8.95582 11.5508 8.7293 11.3678 8.53886C11.1847 8.34843 10.9639 8.19827 10.7195 8.09799C10.4751 7.9977 10.2125 7.94948 9.94838 7.95642H7.10174V12.0164H9.94244C10.2079 12.0233 10.4718 11.9746 10.7174 11.8736C10.9629 11.7726 11.1846 11.6213 11.3684 11.4296C11.5521 11.2379 11.6937 11.01 11.7842 10.7603C11.8747 10.5107 11.9121 10.2449 11.8939 9.98004ZM28.2287 1.07104V25.9263H21.127V1.07104H28.2287ZM70.0883 22.7301H62.9153L62.0668 25.9254H54.4305L62.3485 1.07104H70.6559L78.5748 25.9263H70.9385L70.0883 22.7301ZM68.561 17.0555L66.5018 9.4192L64.4425 17.0555H68.561ZM100.587 25.9263V1.07104H93.4857V12.433L85.6695 1.07104H79.9949V25.9263H87.0949V14.5618L94.9128 25.9263H100.587ZM121.535 7.96152H115.675V25.9263H108.573V7.96152H102.719V1.07104H121.538L121.535 7.96152ZM140 25.9254V19.3922L130.767 19.3956V16.6262H138.934V10.2346H130.767V7.53388H139.822V1.07104H123.667V25.9254H140Z" fill="white"/>
</svg>
